<svg width="32" height="32" viewBox="0 0 32 32" fill="none" xmlns="http://www.w3.org/2000/svg">
<path d="M10 11.6587C10.4627 11.1493 11.22 10.6667 12.3333 10.6667C13.8693 10.6667 14.8587 11.7227 15.2067 12.8813C15.544 14.0107 15.34 15.408 14.38 16.372C14.047 16.6921 13.6939 16.9905 13.3227 17.2653L13.2693 17.3067C12.896 17.5947 12.5627 17.856 12.2693 18.1467C11.9293 18.488 11.6507 18.86 11.4893 19.3333H14.3333C14.5985 19.3333 14.8529 19.4387 15.0404 19.6262C15.228 19.8138 15.3333 20.0681 15.3333 20.3333C15.3333 20.5985 15.228 20.8529 15.0404 21.0404C14.8529 21.228 14.5985 21.3333 14.3333 21.3333H10.3333C10.0681 21.3333 9.81376 21.228 9.62622 21.0404C9.43869 20.8529 9.33333 20.5985 9.33333 20.3333C9.33333 18.6707 10.032 17.556 10.8587 16.732C11.2533 16.3373 11.6827 16.0053 12.0453 15.724L12.0493 15.7213C12.4307 15.4267 12.7267 15.1973 12.9627 14.9613C13.3253 14.596 13.452 13.9947 13.2907 13.4547C13.1373 12.9467 12.7973 12.6667 12.3333 12.6667C11.8627 12.6667 11.62 12.8493 11.48 13.004C11.3981 13.0944 11.3314 13.1975 11.2827 13.3093V13.3133C11.201 13.5658 11.0223 13.7755 10.786 13.8963C10.5497 14.0171 10.2751 14.039 10.0227 13.9573C9.77018 13.8756 9.56048 13.697 9.43971 13.4607C9.31893 13.2244 9.29698 12.9498 9.37866 12.6973L9.42533 12.5693C9.56233 12.2349 9.75631 11.9268 9.99866 11.6587H10Z" fill="black"/>
<path d="M17.6667 10.6667C17.9319 10.6667 18.1863 10.772 18.3738 10.9596C18.5613 11.1471 18.6667 11.4014 18.6667 11.6667V15.3333H20.6667V11.6667C20.6667 11.4014 20.772 11.1471 20.9596 10.9596C21.1471 10.772 21.4015 10.6667 21.6667 10.6667C21.9319 10.6667 22.1863 10.772 22.3738 10.9596C22.5613 11.1471 22.6667 11.4014 22.6667 11.6667V20.2933C22.6667 20.5585 22.5613 20.8129 22.3738 21.0004C22.1863 21.188 21.9319 21.2933 21.6667 21.2933C21.4015 21.2933 21.1471 21.188 20.9596 21.0004C20.772 20.8129 20.6667 20.5585 20.6667 20.2933V17.3333H17.6667C17.4015 17.3333 17.1471 17.228 16.9596 17.0404C16.772 16.8529 16.6667 16.5985 16.6667 16.3333V11.6667C16.6667 11.4014 16.772 11.1471 16.9596 10.9596C17.1471 10.772 17.4015 10.6667 17.6667 10.6667Z" fill="black"/>
<path d="M29.3334 16C29.3334 8.636 23.364 2.66667 16 2.66667C8.63602 2.66667 2.66669 8.636 2.66669 16C2.66669 23.364 8.63602 29.3333 16 29.3333C23.364 29.3333 29.3334 23.364 29.3334 16ZM4.66669 16C4.66669 12.9942 5.86073 10.1115 7.98614 7.98612C10.1116 5.86071 12.9942 4.66667 16 4.66667C19.0058 4.66667 21.8885 5.86071 24.0139 7.98612C26.1393 10.1115 27.3334 12.9942 27.3334 16C27.3334 19.0058 26.1393 21.8885 24.0139 24.0139C21.8885 26.1393 19.0058 27.3333 16 27.3333C12.9942 27.3333 10.1116 26.1393 7.98614 24.0139C5.86073 21.8885 4.66669 19.0058 4.66669 16Z" fill="black"/>
</svg>
