<svg width="18" height="16" viewBox="0 0 18 16" fill="none" xmlns="http://www.w3.org/2000/svg">
<path fill-rule="evenodd" clip-rule="evenodd" d="M1.19249e-08 8C1.85108e-08 7.44772 0.447715 7 1 7L17 7C17.5523 7 18 7.44772 18 8C18 8.55228 17.5523 9 17 9L1 9C0.447715 9 5.33895e-09 8.55228 1.19249e-08 8Z" fill="#494D4E"/>
<path fill-rule="evenodd" clip-rule="evenodd" d="M9.29289 15.7071C8.90237 15.3166 8.90237 14.6834 9.29289 14.2929L15.5858 8L9.29289 1.70711C8.90237 1.31658 8.90237 0.683417 9.29289 0.292893C9.68342 -0.0976314 10.3166 -0.0976314 10.7071 0.292893L17.7071 7.29289C18.0976 7.68342 18.0976 8.31658 17.7071 8.70711L10.7071 15.7071C10.3166 16.0976 9.68342 16.0976 9.29289 15.7071Z" fill="#494D4E"/>
</svg>
