<svg width="18" height="16" viewBox="0 0 18 16" fill="none" xmlns="http://www.w3.org/2000/svg">
<path fill-rule="evenodd" clip-rule="evenodd" d="M18 8C18 8.55228 17.5523 9 17 9L1 9C0.447716 9 -6.78525e-08 8.55228 -4.37114e-08 8C-1.95703e-08 7.44771 0.447716 7 1 7L17 7C17.5523 7 18 7.44772 18 8Z" fill="#494D4E"/>
<path fill-rule="evenodd" clip-rule="evenodd" d="M8.70711 0.292893C9.09763 0.683418 9.09763 1.31658 8.70711 1.70711L2.41421 8L8.70711 14.2929C9.09763 14.6834 9.09763 15.3166 8.70711 15.7071C8.31658 16.0976 7.68342 16.0976 7.29289 15.7071L0.292893 8.70711C-0.0976318 8.31658 -0.0976318 7.68342 0.292893 7.29289L7.29289 0.292893C7.68342 -0.0976312 8.31658 -0.0976311 8.70711 0.292893Z" fill="#494D4E"/>
</svg>
