<svg width="28" height="28" viewBox="0 0 28 28" fill="none" xmlns="http://www.w3.org/2000/svg">
<path d="M14 0.875C6.75195 0.875 0.875 6.75195 0.875 14C0.875 21.248 6.75195 27.125 14 27.125C21.248 27.125 27.125 21.248 27.125 14C27.125 6.75195 21.248 0.875 14 0.875ZM14 24.8984C7.98242 24.8984 3.10156 20.0176 3.10156 14C3.10156 7.98242 7.98242 3.10156 14 3.10156C20.0176 3.10156 24.8984 7.98242 24.8984 14C24.8984 20.0176 20.0176 24.8984 14 24.8984ZM14.1641 9.29199C15.7168 9.29199 16.7715 10.2822 16.8887 11.7354C16.8975 11.8584 17 11.9521 17.123 11.9521H18.7842C18.8604 11.9521 18.9219 11.8906 18.9219 11.8145C18.9219 9.27441 16.918 7.49609 14.1553 7.49609C10.9355 7.49609 9.07812 9.66992 9.07812 13.2617V14.7939C9.07812 18.3594 10.9355 20.5039 14.1553 20.5039C16.9092 20.5039 18.9219 18.7812 18.9219 16.3613C18.9219 16.2852 18.8604 16.2236 18.7842 16.2236H17.1201C16.9971 16.2236 16.8975 16.3174 16.8857 16.4375C16.7627 17.7881 15.7109 18.7168 14.1611 18.7168C12.248 18.7168 11.1699 17.3135 11.1699 14.8027V13.2617C11.1729 10.7129 12.2539 9.29199 14.1641 9.29199Z" fill="black" fill-opacity="0.5"/>
</svg>
