<svg width="24" height="23" viewBox="0 0 24 23" fill="none" xmlns="http://www.w3.org/2000/svg">
<path fill-rule="evenodd" clip-rule="evenodd" d="M9.75949 0.249999H14.2404C16.2204 0.249973 17.808 0.249953 19.0547 0.417631C20.3453 0.591215 21.4194 0.960839 22.2704 1.81226C23.1223 2.66338 23.492 3.7377 23.6657 5.02862C23.8333 6.27534 23.8333 7.86292 23.8333 9.84288V9.99046C23.8333 11.9704 23.8333 13.558 23.6657 14.8047C23.4921 16.0955 23.1224 17.1697 22.2707 18.0208C21.4197 18.8724 20.3454 19.2421 19.0547 19.4157C17.808 19.5834 16.2204 19.5834 14.2404 19.5833H14.1666C13.6143 19.5833 13.1666 19.1356 13.1666 18.5833C13.1666 18.031 13.6143 17.5833 14.1666 17.5833C16.2375 17.5833 17.6902 17.5812 18.7881 17.4335C19.8572 17.2898 20.4388 17.0247 20.8562 16.6069C21.274 16.1894 21.5397 15.6072 21.6835 14.5381C21.8312 13.4403 21.8333 11.9876 21.8333 9.91667C21.8333 7.84576 21.8312 6.39308 21.6835 5.29521C21.5397 4.22609 21.2746 3.64454 20.8568 3.22707C20.4394 2.80926 19.8572 2.54358 18.7881 2.39978C17.6902 2.25212 16.2375 2.25 14.1666 2.25H9.83329C7.76239 2.25 6.30971 2.25212 5.21184 2.39978C4.14272 2.54358 3.56116 2.80865 3.1437 3.22647C2.72588 3.64393 2.4602 4.22609 2.31641 5.29521C2.16875 6.39308 2.16663 7.84576 2.16663 9.91667C2.16663 11.9876 2.16875 13.4403 2.31641 14.5381C2.4602 15.6072 2.72528 16.1888 3.1431 16.6063L3.14394 16.6071C3.60883 17.0727 4.27697 17.3486 5.59719 17.4776C6.14686 17.5313 6.54892 18.0204 6.49522 18.5701C6.44152 19.1197 5.9524 19.5218 5.40273 19.4681C3.90653 19.3219 2.67899 18.9717 1.72911 18.0207C0.877531 17.1696 0.507858 16.0954 0.334259 14.8047C0.16658 13.558 0.166601 11.9704 0.166627 9.99047V9.84286C0.166601 7.86291 0.16658 6.27534 0.334259 5.02862C0.507863 3.73785 0.877554 2.66363 1.72919 1.81256C2.58026 0.960926 3.65448 0.591235 4.94525 0.417631C6.19197 0.249953 7.77954 0.249973 9.75949 0.249999Z" fill="white"/>
<path fill-rule="evenodd" clip-rule="evenodd" d="M6.13139 15.9624C6.68144 16.0119 7.08716 16.498 7.03759 17.0481L6.99199 17.5541C6.88817 18.6916 6.82062 19.4524 6.83475 19.9785C6.83732 20.0739 6.84256 20.1509 6.8488 20.2124C6.92583 20.1899 7.02232 20.1573 7.14165 20.1109C7.68629 19.8993 8.43955 19.5099 9.54487 18.9362C10.9412 18.2116 12.5881 17.5833 14.1666 17.5833C14.7189 17.5833 15.1666 18.031 15.1666 18.5833C15.1666 19.1356 14.7189 19.5833 14.1666 19.5833C13.0671 19.5833 11.7631 20.0384 10.4662 20.7113V20.7113L10.4038 20.7437C9.37282 21.2788 8.5237 21.7196 7.86606 21.9751C7.52857 22.1063 7.17586 22.2158 6.8308 22.2483C6.47277 22.2821 6.0517 22.2387 5.66817 21.9809M6.13139 15.9624C5.58133 15.9128 5.09524 16.3185 5.04566 16.8686ZM5.04566 16.8686L5.00026 17.3723ZM5.00026 17.3723V17.3723ZM5.00026 17.3723C4.99838 17.3929 4.99645 17.4141 4.99458 17.4346C4.89829 18.4892 4.81773 19.3717 4.83547 20.0322C4.85154 20.6301 4.94581 21.4956 5.66817 21.9809" fill="white"/>
</svg>
