<svg width="50" height="50" viewBox="0 0 50 50" fill="none" xmlns="http://www.w3.org/2000/svg">
<path d="M34.5209 45.8336C35.0742 45.8368 35.6226 45.7298 36.1341 45.5187C36.6456 45.3077 37.1099 44.9969 37.5 44.6045L43.1459 38.9586C43.5339 38.5683 43.7517 38.0403 43.7517 37.4899C43.7517 36.9395 43.5339 36.4115 43.1459 36.0211L34.8125 27.6878C34.4222 27.2998 33.8942 27.082 33.3438 27.082C32.7934 27.082 32.2654 27.2998 31.875 27.6878L28.5417 31.0003C26.2339 30.385 24.0965 29.2522 22.2917 27.6878C20.7315 25.8801 19.5993 23.7437 18.9792 21.4378L22.2917 18.1045C22.6797 17.7141 22.8975 17.1861 22.8975 16.6357C22.8975 16.0853 22.6797 15.5573 22.2917 15.167L13.9584 6.83363C13.568 6.44561 13.04 6.22781 12.4896 6.22781C11.9392 6.22781 11.4112 6.44561 11.0209 6.83363L5.39586 12.5003C5.00343 12.8904 4.69262 13.3547 4.48158 13.8662C4.27054 14.3777 4.1635 14.9261 4.1667 15.4795C4.3557 23.4842 7.55435 31.1238 13.125 36.8753C18.8765 42.446 26.5161 45.6446 34.5209 45.8336ZM12.5 11.2711L17.8959 16.667L15.2084 19.3545C14.9538 19.5929 14.7632 19.8914 14.654 20.2226C14.5448 20.5539 14.5205 20.9072 14.5834 21.2503C15.362 24.7302 17.0107 27.9558 19.375 30.6253C22.0424 32.9927 25.2688 34.6417 28.75 35.417C29.0879 35.4876 29.438 35.4732 29.7689 35.375C30.0998 35.2768 30.4012 35.0979 30.6459 34.8545L33.3334 32.1045L38.7292 37.5003L34.5625 41.667C27.6536 41.4891 21.0615 38.7318 16.0834 33.9378C11.2769 28.9576 8.51171 22.3568 8.33336 15.4378L12.5 11.2711ZM41.6667 22.917H45.8334C45.8874 20.4399 45.4393 17.9775 44.5162 15.6782C43.593 13.379 42.2139 11.2904 40.4619 9.53841C38.7099 7.78643 36.6214 6.40731 34.3221 5.48415C32.0228 4.561 29.5604 4.11294 27.0834 4.16696V8.33363C29.0165 8.26676 30.9427 8.59823 32.7423 9.30745C34.5419 10.0167 36.1764 11.0885 37.5441 12.4562C38.9119 13.824 39.9837 15.4584 40.6929 17.258C41.4021 19.0576 41.7336 20.9838 41.6667 22.917Z" fill="white"/>
<path d="M27.0834 16.6667C31.4584 16.6667 33.3334 18.5417 33.3334 22.9167H37.5C37.5 16.2083 33.7917 12.5 27.0834 12.5V16.6667Z" fill="white"/>
</svg>
