<svg width="100" height="100" viewBox="0 0 100 100" fill="none" xmlns="http://www.w3.org/2000/svg">
<path d="M50.625 6.71875H55.9375V16.875H50.625V6.71875Z" fill="#D0D0D0"/>
<path d="M55.9375 6.71875H59.5312V16.875H55.9375V6.71875Z" fill="#94989B"/>
<path d="M48.75 3.125H57.6562V6.71875H48.75V3.125Z" fill="#D0D0D0"/>
<path d="M57.6562 3.125H61.25V6.71875H57.6562V3.125Z" fill="#94989B"/>
<path d="M37.8125 3.125L4.21875 22.3438H71.5625L37.8125 3.125Z" fill="#ED4C5C"/>
<path d="M13.75 22.3438H62.0313V52.0312H13.75V22.3438Z" fill="#F9F3D9"/>
<path d="M31.875 31.25H43.9063V43.2812H31.875V31.25Z" fill="#D6EEF0"/>
<path d="M30.3125 29.6875V44.6875H45.3125V29.6875H30.3125ZM43.9063 31.25V36.5625H38.5938V31.25H43.9063ZM37.1875 31.25V36.5625H31.875V31.25H37.1875ZM31.875 43.2812V37.9687H37.1875V43.2812H31.875ZM38.5938 43.2812V37.9687H43.9063V43.2812H38.5938Z" fill="#89664C"/>
<path d="M10 63.9062H81.25V94.0625H10V63.9062Z" fill="#F9F3D9"/>
<path d="M57.6562 72.8125H69.6875V84.8438H57.6562V72.8125Z" fill="#D6EEF0"/>
<path d="M56.0938 71.4062V86.4062H71.0937V71.4062H56.0938ZM69.6875 72.8125V78.125H64.375V72.8125H69.6875ZM62.8125 72.8125V78.125H57.5V72.8125H62.8125ZM57.6562 84.8438V79.6875H62.9687V85H57.6562V84.8438ZM64.375 84.8438V79.6875H69.6875V85H64.375V84.8438Z" fill="#89664C"/>
<path d="M28.75 75.4688H41.875V93.9062H28.75V75.4688Z" fill="#89664C"/>
<path d="M27.5 72.8125H43.2813V75.4688H27.5V72.8125Z" fill="#DBB471"/>
<path d="M39.6875 84.375C40.2053 84.375 40.625 83.9553 40.625 83.4375C40.625 82.9197 40.2053 82.5 39.6875 82.5C39.1697 82.5 38.75 82.9197 38.75 83.4375C38.75 83.9553 39.1697 84.375 39.6875 84.375Z" fill="#F9F3D9"/>
<path d="M3.125 93.9062H96.875V96.875H3.125V93.9062Z" fill="#83BF4F"/>
<path d="M77.5 52.1875H13.5938L3.125 63.9062H88.125L77.5 52.1875Z" fill="#ED4C5C"/>
<path d="M96.875 87.8125C96.875 85.9375 95.4688 84.5312 93.5938 84.5312C93.2813 84.5312 92.8125 84.5312 92.5 84.6875C92.0313 83.9062 91.25 83.2812 90.3125 83.2812C89.6875 83.2812 89.2187 83.4375 88.75 83.75V83.2812C88.75 81.875 87.6563 80.7812 86.25 80.7812C85 80.7812 84.0625 81.7187 83.75 82.8125C83.4375 82.5 83.125 82.5 82.6563 82.5C81.7188 82.5 80.9375 83.2813 80.9375 84.2188V94.0625H94.0625C95.4688 94.0625 96.5625 92.9687 96.5625 91.5625C96.5625 90.9375 96.25 90.3125 95.9375 89.8437C96.5625 89.2187 96.875 88.5938 96.875 87.8125Z" fill="#83BF4F"/>
<path d="M96.875 91.4062C96.875 90.7812 96.5625 90.1562 96.25 89.6875C96.7187 89.0625 96.875 88.4375 96.875 87.6562C96.875 85.7812 95.4688 84.375 93.5938 84.375C93.2813 84.375 92.8125 84.375 92.5 84.5312C92.1875 84.0625 91.875 83.5937 91.25 83.2812C90.3125 83.5937 89.8438 84.5313 89.8438 85.4688C89.8438 85.7813 89.8437 85.9375 90 86.0937C89.8437 85.9375 89.5312 85.9375 89.2187 85.9375C88.2812 85.9375 87.5 86.7187 87.5 87.6562C87.5 88.2812 87.8125 88.75 88.4375 89.0625C88.125 89.5312 87.8125 90.1562 87.8125 90.7812C87.8125 92.3437 89.0625 93.5937 90.625 93.5937H94.375C95.7813 93.9062 96.875 92.8125 96.875 91.4062Z" fill="#699635"/>
<path d="M87.1875 91.875C87.1875 92.8125 86.4063 91.5625 85.4688 91.5625C84.5313 91.5625 83.75 92.8125 83.75 91.875C83.75 90.9375 84.5313 90.1562 85.4688 90.1562C86.4063 90.1562 87.1875 90.9375 87.1875 91.875Z" fill="#699635"/>
<path d="M83.5938 89.0626C83.5938 89.5314 83.2812 89.0626 82.8125 89.0626C82.3437 89.0626 82.0312 89.5314 82.0312 89.0626C82.0312 88.5939 82.3437 88.2814 82.8125 88.2814C83.125 88.1251 83.5938 88.5939 83.5938 89.0626Z" fill="#699635"/>
<path d="M85 86.5625C85 87.0312 84.6875 86.4062 84.2188 86.4062C83.75 86.4062 83.4375 87.0312 83.4375 86.5625C83.4375 86.0937 83.75 85.7812 84.2188 85.7812C84.6875 85.7812 85 86.0937 85 86.5625Z" fill="#83BF4F"/>
<path d="M91.875 90.625C91.875 91.25 91.4062 90.3125 90.7812 90.3125C90.1562 90.3125 89.6875 91.25 89.6875 90.625C89.6875 90 90.1562 89.5312 90.7812 89.5312C91.25 89.5312 91.875 90 91.875 90.625Z" fill="#83BF4F"/>
<path d="M95 87.6562C95 88.5938 94.2188 87.1875 93.2813 87.1875C92.3438 87.1875 91.5625 88.5938 91.5625 87.6562C91.5625 86.7187 92.3438 85.9375 93.2813 85.9375C94.2188 85.9375 95 86.7187 95 87.6562Z" fill="#83BF4F"/>
<path d="M95 91.5625C95 92.0313 94.6875 91.5625 94.2188 91.5625C93.75 91.5625 93.4375 92.0313 93.4375 91.5625C93.4375 91.0938 93.75 90.7812 94.2188 90.7812C94.6875 90.7812 95 91.0938 95 91.5625Z" fill="#83BF4F"/>
<path d="M87.6562 84.8438C87.6562 85.4687 87.1875 84.5312 86.5625 84.5312C85.9375 84.5312 85.4688 85.4687 85.4688 84.8438C85.4688 84.2188 85.9375 83.75 86.5625 83.75C87.1875 83.75 87.6562 84.2188 87.6562 84.8438Z" fill="#83BF4F"/>
<path d="M18.75 87.8125C18.75 85.9375 17.3437 84.5312 15.4687 84.5312C15.1562 84.5312 14.6875 84.5312 14.375 84.6875C13.9062 83.9062 13.125 83.2812 12.1875 83.2812C11.5625 83.2812 11.0938 83.4375 10.625 83.75V83.2812C10.625 81.875 9.53125 80.7812 8.125 80.7812C6.875 80.7812 5.9375 81.7187 5.78125 82.8125C5.46875 82.5 5.15625 82.5 4.6875 82.5C3.75 82.5 3.125 83.2813 3.125 84.2188V94.0625H16.25C17.6562 94.0625 18.75 92.9687 18.75 91.5625C18.75 90.9375 18.4375 90.3125 18.125 89.8437C18.4375 89.2187 18.75 88.5938 18.75 87.8125Z" fill="#83BF4F"/>
<path d="M18.75 91.4062C18.75 90.7812 18.4375 90.1562 18.125 89.6875C18.5938 89.0625 18.75 88.4375 18.75 87.6562C18.75 85.7812 17.3437 84.375 15.4687 84.375C15.1562 84.375 14.6875 84.375 14.375 84.5312C14.0625 84.0625 13.75 83.5937 13.125 83.2812C12.1875 83.5937 11.7188 84.5313 11.7188 85.4688C11.7188 85.7813 11.7187 85.9375 11.875 86.0937C11.7187 85.9375 11.4062 85.9375 11.0937 85.9375C10.1562 85.9375 9.375 86.7187 9.375 87.6562C9.375 88.2812 9.6875 88.75 10.3125 89.0625C10 89.5312 9.6875 90.1562 9.6875 90.7812C9.6875 92.3437 10.9375 93.5937 12.5 93.5937H16.25C17.6562 93.9062 18.75 92.8125 18.75 91.4062Z" fill="#699635"/>
<path d="M9.0625 91.875C9.0625 92.8125 8.28125 91.5625 7.34375 91.5625C6.40625 91.5625 5.625 92.8125 5.625 91.875C5.625 90.9375 6.40625 90.1562 7.34375 90.1562C8.28125 90.1562 9.0625 90.9375 9.0625 91.875Z" fill="#699635"/>
<path d="M5.46875 89.0626C5.46875 89.5314 5.15625 89.0626 4.6875 89.0626C4.21875 89.0626 3.90625 89.5314 3.90625 89.0626C3.90625 88.5939 4.21875 88.2814 4.6875 88.2814C5 88.1251 5.46875 88.5939 5.46875 89.0626Z" fill="#699635"/>
<path d="M6.875 86.5625C6.875 87.0312 6.5625 86.4062 6.09375 86.4062C5.625 86.4062 5.3125 87.0312 5.3125 86.5625C5.3125 86.0937 5.625 85.7812 6.09375 85.7812C6.40625 85.7812 6.875 86.0937 6.875 86.5625Z" fill="#83BF4F"/>
<path d="M13.75 90.625C13.75 91.25 13.2813 90.3125 12.6563 90.3125C12.0313 90.3125 11.5625 91.25 11.5625 90.625C11.5625 90 12.0313 89.5312 12.6563 89.5312C13.125 89.5312 13.75 90 13.75 90.625Z" fill="#83BF4F"/>
<path d="M16.875 87.6562C16.875 88.5938 16.0937 87.1875 15.1562 87.1875C14.2187 87.1875 13.4375 88.5938 13.4375 87.6562C13.4375 86.7187 14.375 85.9375 15.1562 85.9375C16.0937 85.9375 16.875 86.7187 16.875 87.6562Z" fill="#83BF4F"/>
<path d="M16.875 91.5626C16.875 92.0314 16.5625 91.5626 16.0937 91.5626C15.625 91.5626 15.3125 92.0314 15.3125 91.5626C15.3125 91.0939 15.625 90.7814 16.0937 90.7814C16.5625 90.6251 16.875 91.0939 16.875 91.5626Z" fill="#83BF4F"/>
<path d="M9.53125 84.8438C9.53125 85.4687 9.0625 84.5312 8.4375 84.5312C7.8125 84.5312 7.34375 85.4687 7.34375 84.8438C7.34375 84.2188 7.8125 83.75 8.4375 83.75C9.0625 83.75 9.53125 84.2188 9.53125 84.8438Z" fill="#83BF4F"/>
</svg>
