<svg width="100" height="100" viewBox="0 0 100 100" fill="none" xmlns="http://www.w3.org/2000/svg">
<path d="M3.40625 73.6094C3.40625 73.6094 3.35938 23.6485 3.35938 22.2188C3.35938 20.6485 4.17969 20.3751 5.49219 20.336C6.75 20.2969 93.3672 20.2579 94.7344 20.2969C96.5234 20.3438 96.6875 21.4688 96.75 22.8985C96.8125 24.3282 96.7656 73.6485 96.7656 73.6485L47.8359 74.5548L3.40625 73.6094Z" fill="#BACFD4"/>
<path d="M3.40625 73.6094C3.40625 73.6094 3.42969 94.3438 3.42969 95.4219C3.42969 96.5 4.21094 97.2812 5.6875 97.2812C7.16406 97.2812 93.6484 97.0859 94.8281 97.0859C96.0078 97.0859 96.6875 96.0078 96.7891 94.2422C96.8906 92.4766 96.7813 73.6406 96.7813 73.6406L3.40625 73.6094Z" fill="#6BA4AE"/>
<path d="M26.4297 80.1328L26.5156 97.2188H72.8594L72.9375 79.8047L26.4297 80.1328Z" fill="#546F7A"/>
<path d="M31.3281 80.9922V97.2031H33.9063V80.7656L31.3281 80.9922Z" fill="#B9CED3"/>
<path d="M48.4609 80.6875V97.1797H51.0703V80.4375L48.4609 80.6875Z" fill="#B9CED3"/>
<path d="M66.125 80.7187V97.2188H68.8047V80.3672L66.125 80.7187Z" fill="#B9CED3"/>
<path d="M30.8203 73.8047C30.8203 73.8047 30.5469 7.01562 30.5469 5.57031C30.5469 4.125 31.1016 2.98438 32.5469 2.89062C33.9922 2.79688 65.1719 2.79688 66.4375 2.89062C67.7031 2.98438 68.5078 3.76562 68.5078 5.39062C68.5078 7.01562 68.6875 73.8047 68.6875 73.8047L81.8828 75.4297V79.4062C81.8828 80.6719 81.4297 81.1719 80.1172 81.1719H18.4297C17.2578 81.1719 16.8906 79.9531 16.8906 78.6875V74.4375L30.8203 73.8047Z" fill="#F1EDEC"/>
<path d="M16.9219 75.8203L81.8828 75.7891C81.8828 75.7891 81.9219 74.3906 81.8828 73.6953C81.8281 72.7109 80.9922 72.6797 79.0859 72.6797H18.4375C17.6094 72.6797 16.9688 72.9687 16.9063 73.7969C16.8438 74.625 16.9219 75.7812 16.9219 75.8203Z" fill="#FEFFFD"/>
<path d="M37.1016 51.1015C37.2812 51.2812 61.5625 51.3905 61.7187 51.2265C61.8594 51.078 61.9687 42.0937 61.7812 41.9062C61.5391 41.664 37.2891 41.7187 37.1016 41.9062C36.9141 42.0937 36.9141 50.9062 37.1016 51.1015Z" fill="#546F7A"/>
<path d="M37.1641 58.7188C36.8438 58.8281 37.1016 67.8516 37.1016 67.8516L61.8438 67.6641C61.8438 67.6641 62.0625 58.9297 61.6563 58.7266C61.4063 58.5938 37.5469 58.5938 37.1641 58.7188Z" fill="#546F7A"/>
<path d="M71.9219 26.4141V36.3672H81.3047V26.2891L71.9219 26.4141Z" fill="#546F7A"/>
<path d="M85.0156 26.2891H93.8984L94.0234 36.2422H84.9531L85.0156 26.2891Z" fill="#546F7A"/>
<path d="M84.8906 42.1562L84.8281 51.7891H93.8359L93.9609 42.1562H84.8906Z" fill="#546F7A"/>
<path d="M81.3047 42.0938H71.8594V51.7891H81.4297L81.3047 42.0938Z" fill="#546F7A"/>
<path d="M81.3672 58.0859H71.9219V67.9687H81.4922C81.4922 67.9765 81.2422 57.9609 81.3672 58.0859Z" fill="#546F7A"/>
<path d="M84.8906 58.0233H93.8281V68.1015H84.8906C84.8906 68.1015 84.9844 57.9296 84.8906 58.0233Z" fill="#546F7A"/>
<path d="M19.0312 67.8437V57.8359L28.2266 57.7109V67.7187L19.0312 67.8437Z" fill="#546F7A"/>
<path d="M15.5078 67.7813V57.7734H6.125L6.1875 67.9141C6.1875 67.9062 15.6328 67.7813 15.5078 67.7813Z" fill="#546F7A"/>
<path d="M6.0625 41.9062H15.5703V51.5391H6.0625V41.9062Z" fill="#546F7A"/>
<path d="M19.1562 41.8438V51.5391H28.1016V41.9062L19.1562 41.8438Z" fill="#546F7A"/>
<path d="M19.2812 25.9141H27.9688V36.0547H19.2812V25.9141Z" fill="#546F7A"/>
<path d="M15.3828 26.2891L6.1875 26.2266V35.9219H15.3828V26.2891Z" fill="#546F7A"/>
<path d="M44.4844 16.2344C44.4844 16.2344 44.4688 6.58594 44.5391 5.92969C44.6016 5.26562 45 5.13281 45.4688 5.13281C45.9297 5.13281 53.9453 5.13281 54.4063 5.19531C54.8672 5.25781 55.0703 5.65625 55.0703 6.39063V16.1875C55.0703 16.1875 64.6016 16.25 65 16.25C65.3985 16.25 65.7969 16.7109 65.7969 17.2422V25.9766C65.7969 26.5703 65.7344 27.1719 65 27.2969C64.2656 27.4219 55.0078 27.2969 55.0078 27.2969V38.3047C55.0078 38.7578 54.625 39.1484 53.9844 39.1953C53.3438 39.2422 45.3985 39.1953 44.9531 39.1953C44.5078 39.1953 44.5078 37.8594 44.5078 37.4063V27.5313H34.1328C33.6797 27.5313 33.4844 27.0859 33.4375 26.2422C33.3906 25.3984 33.4688 17.7578 33.4844 17.3125C33.5156 16.6172 33.7813 16.2813 34.2735 16.2344C34.7578 16.1953 44.4844 16.2344 44.4844 16.2344Z" fill="#DD0C26"/>
<path d="M48.5391 9.03906H51.0078V35.6797H48.5391V9.03906Z" fill="white"/>
<path d="M37.2578 20.5156H61.9141V23.0234H37.2578V20.5156Z" fill="white"/>
</svg>
