<svg width="44" height="44" viewBox="0 0 44 44" fill="none" xmlns="http://www.w3.org/2000/svg">
<path fill-rule="evenodd" clip-rule="evenodd" d="M25.4719 11.5719C24.7898 12.0448 24.0204 12.3771 23.2086 12.5495C22.3967 12.7218 21.5587 12.7307 20.7433 12.5757C19.928 12.4207 19.1517 12.1048 18.4597 11.6465C17.7678 11.1883 17.174 10.5968 16.7131 9.90654C16.2522 9.21634 15.9334 8.44124 15.7753 7.62649C15.6171 6.81175 15.6229 5.97366 15.7921 5.16116C15.9614 4.34865 16.2907 3.57798 16.761 2.89414C17.2313 2.21029 17.8331 1.62696 18.5313 1.17819C19.9097 0.267751 21.5924 -0.0599664 23.2117 0.266677C24.831 0.593321 26.2552 1.54776 27.1728 2.92135C28.0905 4.29495 28.427 5.97597 28.1089 7.59697C27.7907 9.21797 26.8438 10.6471 25.475 11.5719H25.4719ZM23.7375 3.77819C23.3972 3.53337 23.0111 3.35952 22.6022 3.267C22.1933 3.17449 21.7699 3.1652 21.3574 3.23968C20.9448 3.31417 20.5514 3.47091 20.2007 3.70056C19.85 3.93022 19.549 4.22811 19.3158 4.57648C19.0826 4.92486 18.9218 5.3166 18.8431 5.72838C18.7644 6.14017 18.7694 6.56358 18.8577 6.97341C18.9461 7.38323 19.116 7.7711 19.3573 8.1139C19.5986 8.45671 19.9065 8.74745 20.2625 8.96882C20.9504 9.38667 21.7729 9.52302 22.5588 9.34947C23.3447 9.17593 24.0333 8.70586 24.4813 8.0372C24.9292 7.36854 25.1019 6.55284 24.9633 5.76003C24.8248 4.96722 24.3857 4.25843 23.7375 3.78132V3.77819ZM31.8938 3.87194C32.7951 3.2657 33.8795 2.99269 34.9604 3.09992C36.0413 3.20716 37.051 3.68793 37.8156 4.45944C38.3605 5.00866 38.7622 5.68317 38.9857 6.42382C39.2091 7.16447 39.2473 7.94863 39.0971 8.70752C38.9469 9.46641 38.6127 10.1768 38.124 10.7765C37.6352 11.3762 37.0068 11.8467 36.2938 12.1469C35.4374 12.505 34.4938 12.5993 33.5835 12.4178C32.6733 12.2363 31.8379 11.7873 31.1844 11.1282C30.6932 10.6345 30.3172 10.0383 30.0834 9.38235C29.8495 8.72638 29.7636 8.02683 29.8316 7.33375C29.8997 6.64067 30.1202 5.97122 30.4772 5.37329C30.8342 4.77536 31.319 4.26375 31.8969 3.87507L31.8938 3.87194ZM33.3938 8.90319C33.6872 9.19534 34.0846 9.35898 34.4986 9.3581C34.7037 9.35767 34.9066 9.31685 35.0958 9.238C35.2851 9.15914 35.4569 9.04378 35.6016 8.8985C35.7462 8.75323 35.8609 8.58088 35.9389 8.39131C36.017 8.20173 36.0569 7.99864 36.0565 7.79363C36.0561 7.58861 36.0152 7.38569 35.9364 7.19645C35.8575 7.00721 35.7422 6.83535 35.5969 6.69069C35.3059 6.39807 34.9126 6.22999 34.5 6.22194C34.2939 6.22152 34.0898 6.26196 33.8994 6.34092C33.709 6.41989 33.5362 6.5358 33.3909 6.68197C33.2456 6.82814 33.1307 7.00166 33.0529 7.19251C32.9751 7.38335 32.9359 7.58772 32.9375 7.79382C32.9385 8.21 33.1023 8.60928 33.3938 8.90632V8.90319ZM6.96877 36.0219H12.625V39.1626H6.96877C5.97859 39.1536 5.03236 38.7524 4.33752 38.0469C3.64 37.3389 3.24932 36.3846 3.25002 35.3907V29.7344C2.82928 29.7204 2.41576 29.6212 2.03441 29.4429C1.65307 29.2646 1.31182 29.0108 1.03127 28.6969C0.733155 28.395 0.499194 28.0358 0.343454 27.6411C0.187714 27.2464 0.113413 26.8242 0.125017 26.4001V19.5813C0.134392 18.1063 0.718767 16.6969 1.75002 15.6501C2.77814 14.6157 4.16877 14.0251 5.62502 14.0157H11.375C10.5994 14.9394 10.0152 16.008 9.65627 17.1594H5.62502C4.99077 17.1776 4.3873 17.4369 3.93752 17.8844C3.49571 18.3387 3.24899 18.9477 3.25002 19.5813V26.5563H6.37502V35.3876C6.36777 35.4727 6.37788 35.5584 6.40474 35.6395C6.4316 35.7206 6.47464 35.7955 6.53127 35.8594C6.65689 35.9565 6.81007 36.0112 6.96877 36.0157V36.0219ZM29.7813 15.6532C29.2699 15.1369 28.6616 14.7267 27.9912 14.4462C27.3209 14.1657 26.6017 14.0205 25.875 14.0188H18.125C16.6682 14.0305 15.2751 14.618 14.25 15.6532C13.2188 16.7001 12.6344 18.1094 12.625 19.5844V29.5157C12.6206 30.3684 12.9452 31.19 13.5313 31.8094C13.8122 32.1229 14.1535 32.3763 14.5348 32.5546C14.916 32.7329 15.3294 32.8323 15.75 32.8469V40.1063C15.7471 40.6018 15.8422 41.093 16.0299 41.5515C16.2177 42.0101 16.4942 42.427 16.8438 42.7782C17.4063 43.3032 18.1156 43.6438 18.875 43.7532H25.125C26.004 43.6378 26.8093 43.2016 27.3862 42.5284C27.963 41.8552 28.2707 40.9926 28.25 40.1063V32.8438C28.6708 32.8298 29.0843 32.7306 29.4656 32.5522C29.847 32.3739 30.1882 32.1202 30.4688 31.8063C30.7666 31.5048 31.0005 31.1462 31.1562 30.752C31.312 30.3578 31.3864 29.9362 31.375 29.5126V19.5813C31.3772 18.1131 30.8052 16.7023 29.7813 15.6501V15.6532ZM28.25 29.6688H25.125V40.1063C25.122 40.271 25.0547 40.428 24.9375 40.5438C24.8842 40.6069 24.8169 40.6568 24.7409 40.6893C24.665 40.7219 24.5825 40.7362 24.5 40.7313H19.4688C19.3055 40.7237 19.1509 40.6554 19.0353 40.5398C18.9197 40.4242 18.8514 40.2696 18.8438 40.1063V29.6688H15.75V19.5813C15.75 18.9469 15.9969 18.3376 16.4375 17.8844C16.8873 17.4369 17.4908 17.1776 18.125 17.1594H25.875C26.3484 17.1678 26.8091 17.3142 27.2004 17.5806C27.5918 17.8471 27.8969 18.2221 28.0781 18.6594C28.1971 18.952 28.2556 19.2656 28.25 19.5813V29.6688ZM37.0313 39.1594H31.375V36.0188H37C37.1587 36.0144 37.3119 35.9596 37.4375 35.8626C37.5005 35.8011 37.5497 35.7269 37.582 35.6451C37.6143 35.5632 37.629 35.4755 37.625 35.3876V26.5563H40.75V19.5813C40.751 18.9477 40.5043 18.3387 40.0625 17.8844C39.6127 17.4369 39.0093 17.1776 38.375 17.1594H34.3438C33.985 16.0079 33.4007 14.9393 32.625 14.0157H38.375C39.8315 14.029 41.2239 14.6163 42.25 15.6501C43.2813 16.6969 43.8656 18.1063 43.875 19.5813V26.4001C43.875 27.2532 43.5531 28.0719 42.9719 28.6907C42.3906 29.3126 41.5969 29.6844 40.75 29.7313V35.3876C40.75 36.3844 40.3594 37.3376 39.6625 38.0438C38.9677 38.7493 38.0214 39.1505 37.0313 39.1594ZM9.50002 3.07819C8.5701 3.07711 7.66105 3.35375 6.88938 3.87266C6.11771 4.39156 5.51857 5.12908 5.16877 5.99069C4.81574 6.852 4.72409 7.79818 4.90526 8.71123C5.08642 9.62428 5.53238 10.4638 6.18752 11.1251C6.84241 11.7856 7.67934 12.2359 8.59138 12.4184C9.50343 12.601 10.4492 12.5075 11.3079 12.15C12.1665 11.7924 12.8991 11.187 13.4121 10.4111C13.925 9.63514 14.195 8.72393 14.1875 7.79382C14.1875 6.54382 13.6938 5.34382 12.8125 4.45944C12.3786 4.02236 11.8626 3.67533 11.2941 3.43829C10.7256 3.20125 10.1159 3.07887 9.50002 3.07819ZM9.50002 9.36569C9.29392 9.36611 9.08978 9.32567 8.89941 9.24671C8.70903 9.16775 8.5362 9.05183 8.3909 8.90566C8.24561 8.75949 8.13073 8.58597 8.0529 8.39513C7.97508 8.20429 7.93586 7.99991 7.93752 7.79382C7.93833 7.3788 8.10291 6.98087 8.3955 6.68654C8.68808 6.3922 9.08501 6.22523 9.50002 6.22194C9.91376 6.22923 10.3084 6.39747 10.6001 6.69095C10.8918 6.98443 11.0577 7.38004 11.0625 7.79382C11.0617 8.20883 10.8971 8.60676 10.6045 8.9011C10.312 9.19544 9.91502 9.3624 9.50002 9.36569Z" fill="black"/>
</svg>
