<svg width="40" height="40" viewBox="0 0 40 40" fill="none" xmlns="http://www.w3.org/2000/svg">
<path d="M16.8334 33.5C20.5312 33.4993 24.1225 32.2613 27.0354 29.9834L36.1938 39.1417L39.1396 36.1959L29.9813 27.0375C32.2604 24.1243 33.4991 20.5322 33.5 16.8334C33.5 7.64377 26.0229 0.166687 16.8334 0.166687C7.64377 0.166687 0.166687 7.64377 0.166687 16.8334C0.166687 26.0229 7.64377 33.5 16.8334 33.5ZM16.8334 4.33335C23.7271 4.33335 29.3334 9.9396 29.3334 16.8334C29.3334 23.7271 23.7271 29.3334 16.8334 29.3334C9.9396 29.3334 4.33335 23.7271 4.33335 16.8334C4.33335 9.9396 9.9396 4.33335 16.8334 4.33335Z" fill="black"/>
</svg>
