<svg width="42" height="42" viewBox="0 0 42 42" fill="none" xmlns="http://www.w3.org/2000/svg">
<path d="M20.9792 0.166687C9.47916 0.166687 0.166656 9.50002 0.166656 21C0.166656 32.5 9.47916 41.8334 20.9792 41.8334C32.5 41.8334 41.8333 32.5 41.8333 21C41.8333 9.50002 32.5 0.166687 20.9792 0.166687ZM21 37.6667C11.7917 37.6667 4.33332 30.2084 4.33332 21C4.33332 11.7917 11.7917 4.33335 21 4.33335C30.2083 4.33335 37.6667 11.7917 37.6667 21C37.6667 30.2084 30.2083 37.6667 21 37.6667Z" fill="black"/>
<path d="M22.0417 10.5833H18.9167V23.0833L29.8542 29.6458L31.4167 27.0833L22.0417 21.5208V10.5833Z" fill="black"/>
</svg>
